<svg xmlns="http://www.w3.org/2000/svg" width="640" height="360" viewBox="0 0 640 360" role="img" aria-label="American flag">
  <rect width="640" height="360" fill="#ffffff"/>
  <g fill="#b22234">
    <rect y="0" width="640" height="27.692"/>
    <rect y="55.384" width="640" height="27.692"/>
    <rect y="110.768" width="640" height="27.692"/>
    <rect y="166.152" width="640" height="27.692"/>
    <rect y="221.536" width="640" height="27.692"/>
    <rect y="276.92" width="640" height="27.692"/>
    <rect y="332.304" width="640" height="27.696"/>
  </g>
  <rect width="256" height="193.846" fill="#3c3b6e"/>
  <g fill="#ffffff">
    <circle cx="21.333" cy="16.154" r="2.7"/>
    <circle cx="64" cy="16.154" r="2.7"/>
    <circle cx="106.667" cy="16.154" r="2.7"/>
    <circle cx="149.333" cy="16.154" r="2.7"/>
    <circle cx="192" cy="16.154" r="2.7"/>
    <circle cx="234.667" cy="16.154" r="2.7"/>

    <circle cx="42.667" cy="32.308" r="2.7"/>
    <circle cx="85.333" cy="32.308" r="2.7"/>
    <circle cx="128" cy="32.308" r="2.7"/>
    <circle cx="170.667" cy="32.308" r="2.7"/>
    <circle cx="213.333" cy="32.308" r="2.7"/>

    <circle cx="21.333" cy="48.462" r="2.7"/>
    <circle cx="64" cy="48.462" r="2.7"/>
    <circle cx="106.667" cy="48.462" r="2.7"/>
    <circle cx="149.333" cy="48.462" r="2.7"/>
    <circle cx="192" cy="48.462" r="2.7"/>
    <circle cx="234.667" cy="48.462" r="2.7"/>

    <circle cx="42.667" cy="64.616" r="2.7"/>
    <circle cx="85.333" cy="64.616" r="2.7"/>
    <circle cx="128" cy="64.616" r="2.7"/>
    <circle cx="170.667" cy="64.616" r="2.7"/>
    <circle cx="213.333" cy="64.616" r="2.7"/>

    <circle cx="21.333" cy="80.77" r="2.7"/>
    <circle cx="64" cy="80.77" r="2.7"/>
    <circle cx="106.667" cy="80.77" r="2.7"/>
    <circle cx="149.333" cy="80.77" r="2.7"/>
    <circle cx="192" cy="80.77" r="2.7"/>
    <circle cx="234.667" cy="80.77" r="2.7"/>

    <circle cx="42.667" cy="96.924" r="2.7"/>
    <circle cx="85.333" cy="96.924" r="2.7"/>
    <circle cx="128" cy="96.924" r="2.7"/>
    <circle cx="170.667" cy="96.924" r="2.7"/>
    <circle cx="213.333" cy="96.924" r="2.7"/>

    <circle cx="21.333" cy="113.078" r="2.7"/>
    <circle cx="64" cy="113.078" r="2.7"/>
    <circle cx="106.667" cy="113.078" r="2.7"/>
    <circle cx="149.333" cy="113.078" r="2.7"/>
    <circle cx="192" cy="113.078" r="2.7"/>
    <circle cx="234.667" cy="113.078" r="2.7"/>

    <circle cx="42.667" cy="129.232" r="2.7"/>
    <circle cx="85.333" cy="129.232" r="2.7"/>
    <circle cx="128" cy="129.232" r="2.7"/>
    <circle cx="170.667" cy="129.232" r="2.7"/>
    <circle cx="213.333" cy="129.232" r="2.7"/>

    <circle cx="21.333" cy="145.386" r="2.7"/>
    <circle cx="64" cy="145.386" r="2.7"/>
    <circle cx="106.667" cy="145.386" r="2.7"/>
    <circle cx="149.333" cy="145.386" r="2.7"/>
    <circle cx="192" cy="145.386" r="2.7"/>
    <circle cx="234.667" cy="145.386" r="2.7"/>

    <circle cx="42.667" cy="161.54" r="2.7"/>
    <circle cx="85.333" cy="161.54" r="2.7"/>
    <circle cx="128" cy="161.54" r="2.7"/>
    <circle cx="170.667" cy="161.54" r="2.7"/>
    <circle cx="213.333" cy="161.54" r="2.7"/>
  </g>
</svg>
