<svg width="957" height="343" viewBox="0 0 957 343" fill="none" xmlns="http://www.w3.org/2000/svg">
<path d="M794.161 0.0773926L955.754 0.0813904L938.665 32.2444L833.935 32.1854L833.876 55.9814C865.969 55.2614 898.074 55.1584 930.171 55.6724L930.203 86.4254L868.772 86.4224L833.92 86.3944L833.946 112.832L956.941 112.68C951.151 123.614 944.143 135.135 937.873 145.888C889.97 145.281 842.061 145.304 794.159 145.955L794.161 0.0773926Z" fill="url(#paint0_linear_7_236)"/>
<path d="M250.635 0.170334L290.801 0.121338C291.067 18.5723 291.21 37.0253 291.229 55.4783L378.154 55.3793C377.9 36.9693 377.798 18.5563 377.85 0.144333L418.065 0.138336C417.22 47.6693 419.4 95.8803 417.771 143.422C417.718 144.98 416.777 145.268 415.647 145.926L377.728 146.002L378.217 87.2793L290.851 87.3013L291.112 145.903L250.836 146.001C251.142 97.3913 251.075 48.7793 250.635 0.170334Z" fill="url(#paint1_linear_7_236)"/>
<path d="M507.057 0.175323L541.523 0.127319L622.551 146.051C608.412 145.956 594.273 145.944 580.135 146.013C564.344 113.79 546.9 82.0773 529.897 50.4593L524.357 39.1223C506.199 75.2333 486.777 110.156 468.354 146.061C454.413 145.897 440.303 146.006 426.345 146.012C453.663 98.7843 480.016 48.1613 507.057 0.175323Z" fill="url(#paint2_linear_7_236)"/>
<path d="M630.297 0.0974121L670.354 0.122406C669.959 37.2864 670.378 75.4114 670.547 112.633L782.303 112.516C778.649 119.451 774.33 126.814 770.469 133.699L763.133 145.808L630.474 145.802C631.394 97.2374 631.335 48.6594 630.297 0.0974121Z" fill="url(#paint3_linear_7_236)"/>
<path d="M196.582 0.162317L238.897 0.0973143C220.041 48.5603 201.689 97.2173 183.843 146.061L151.024 146.094C143.992 127.733 137.22 109.273 130.713 90.7203C126.926 79.8103 123.147 67.1193 119.18 56.5433C112.462 76.0233 105.459 95.4053 98.1739 114.68C94.8704 123.488 89.03 137.466 86.4084 146.087C75.3629 146.019 64.317 146.039 53.2717 146.146C41.3265 114.504 29.6901 82.7473 18.3642 50.8783C15.7531 43.6043 2.20133 4.8433 0 1.6563V0.805307C6.15664 -0.439693 34.2854 0.11431 42.5213 0.17431C52.6288 25.8783 63.4331 59.9663 71.6245 86.7373C81.8166 57.7993 92.2368 28.9423 102.884 0.168313L136.573 0.158304C147.319 28.0643 157.072 58.4193 166.569 86.9173C175.774 57.3363 187.464 28.9093 196.582 0.162317Z" fill="url(#paint4_linear_7_236)"/>
<path d="M52.9044 190.209C82.6044 189.69 116.824 190.06 146.534 192.211C162.934 193.399 171.974 212.424 171.564 227.759C170.834 255.345 173.394 285.198 170.634 312.81C167.674 341.482 139.234 341.487 116.744 341.926C88.8944 342.854 54.1544 341.86 26.1544 339.997C10.3944 338.948 0.0844488 322.938 0.424449 307.813C-0.255551 290.352 0.224441 272.712 0.104442 255.286C-0.255559 205.662 -2.38557 191.911 52.9044 190.209ZM41.1544 307.968H131.504L131.344 223.941C101.264 224.196 71.1845 224.212 41.1045 223.988L41.1544 307.968Z" fill="url(#paint5_linear_7_236)"/>
<path d="M403.704 191.003C412.354 189.955 432.754 190.565 441.924 190.483C458.504 190.779 475.144 190.422 491.674 191.797C511.824 193.472 517.304 207.314 522.254 224.038C484.394 224.707 445.044 223.409 406.724 223.915L406.734 247.628L458.284 247.454C474.674 247.387 498.354 245.744 512.334 255.485C524.784 264.716 522.674 281.609 523.174 294.796C524.304 324.272 517.024 337.564 486.834 341.462C469.904 341.404 452.964 341.457 436.024 341.623C419.324 341.793 398.024 343.729 382.854 335.97C372.464 330.653 369.204 318.336 366.214 307.944L485.054 308.016L484.994 281.124C467.634 281.032 450.274 281.09 432.914 281.299C417.674 281.41 392.714 283.44 379.894 274.238C372.924 269.234 368.634 257.488 368.044 249.009C365.854 217.675 367.154 194.556 403.704 191.003Z" fill="url(#paint6_linear_7_236)"/>
<path d="M297.874 190.227C298.214 190.217 298.564 190.211 298.904 190.209C328.354 190.103 355.124 193.344 353.434 229.419C352.944 244.787 356.264 266.984 344.164 278.859C330.904 291.877 300.454 288.971 282.914 288.864L248.864 288.923L248.764 256.71C269.434 257.181 292.524 256.45 313.384 256.188C313.224 245.437 313.274 234.531 313.224 223.765C297.204 223.221 278.494 223.678 262.264 223.666L235.494 223.73C236.704 261.796 235.894 303.441 235.774 341.607L194.494 341.625C194.844 291.304 194.794 240.98 194.334 190.659C227.884 190.663 264.634 191.479 297.874 190.227Z" fill="url(#paint7_linear_7_236)"/>
<path d="M578.205 190.63L624.845 190.597L624.965 292.026C624.985 303.83 625.775 330.022 624.505 340.526C622.405 341.931 620.505 341.514 617.675 341.615L578.175 341.695L578.145 293.795L586.775 286.17L586.715 242.44L578.335 236.32L578.205 190.63Z" fill="url(#paint8_linear_7_236)"/>
<path d="M687.364 190.549L733.764 190.532C733.994 205.282 733.724 220.665 733.654 235.465L725.124 242.379L725.064 285.31C727.284 287.646 731.094 290.838 733.614 293.054L733.724 334.514C733.804 336.465 733.634 337.987 733.444 339.92C730.364 342.856 694.154 341.615 687.564 341.591L687.364 190.549Z" fill="url(#paint9_linear_7_236)"/>
<path d="M637.625 190.593L675.734 190.586C674.624 240.215 675.535 291.798 675.805 341.595L637.665 341.639L637.625 190.593Z" fill="url(#paint10_linear_7_236)"/>
<defs>
<linearGradient id="paint0_linear_7_236" x1="874.241" y1="143.822" x2="875.182" y2="1.33831" gradientUnits="userSpaceOnUse">
<stop stop-color="#CDCCCC"/>
<stop offset="1" stop-color="#F6F6F6"/>
</linearGradient>
<linearGradient id="paint1_linear_7_236" x1="333.756" y1="143.355" x2="333.668" y2="1.79556" gradientUnits="userSpaceOnUse">
<stop stop-color="#CDCCCC"/>
<stop offset="1" stop-color="#F6F6F5"/>
</linearGradient>
<linearGradient id="paint2_linear_7_236" x1="523.85" y1="144.172" x2="523.863" y2="1.84424" gradientUnits="userSpaceOnUse">
<stop stop-color="#CDCCCC"/>
<stop offset="1" stop-color="#F5F5F5"/>
</linearGradient>
<linearGradient id="paint3_linear_7_236" x1="705.367" y1="143.312" x2="705.348" y2="1.83605" gradientUnits="userSpaceOnUse">
<stop stop-color="#CDCCCC"/>
<stop offset="1" stop-color="#F6F6F5"/>
</linearGradient>
<linearGradient id="paint4_linear_7_236" x1="118.807" y1="144.252" x2="119" y2="0.830187" gradientUnits="userSpaceOnUse">
<stop stop-color="#CDCCCC"/>
<stop offset="1" stop-color="#F6F6F6"/>
</linearGradient>
<linearGradient id="paint5_linear_7_236" x1="85.5285" y1="339.925" x2="85.45" y2="191.52" gradientUnits="userSpaceOnUse">
<stop stop-color="#CDCCCC"/>
<stop offset="1" stop-color="#F6F6F6"/>
</linearGradient>
<linearGradient id="paint6_linear_7_236" x1="444.5" y1="339.978" x2="444.797" y2="191.521" gradientUnits="userSpaceOnUse">
<stop stop-color="#CDCCCC"/>
<stop offset="1" stop-color="#F6F6F6"/>
</linearGradient>
<linearGradient id="paint7_linear_7_236" x1="273.589" y1="338.949" x2="273.257" y2="191.37" gradientUnits="userSpaceOnUse">
<stop stop-color="#CDCCCC"/>
<stop offset="1" stop-color="#F6F6F5"/>
</linearGradient>
<linearGradient id="paint8_linear_7_236" x1="601.685" y1="190.597" x2="601.685" y2="341.695" gradientUnits="userSpaceOnUse">
<stop stop-color="#FD7F2A"/>
<stop offset="1" stop-color="#FD6600"/>
</linearGradient>
<linearGradient id="paint9_linear_7_236" x1="710.61" y1="190.532" x2="710.61" y2="341.872" gradientUnits="userSpaceOnUse">
<stop stop-color="#FD7F2A"/>
<stop offset="1" stop-color="#FD6600"/>
</linearGradient>
<linearGradient id="paint10_linear_7_236" x1="656.715" y1="190.586" x2="656.715" y2="341.639" gradientUnits="userSpaceOnUse">
<stop stop-color="#FD7F2A"/>
<stop offset="1" stop-color="#FD6600"/>
</linearGradient>
</defs>
</svg>
