<svg width="957" height="343" viewBox="0 0 957 343" fill="none" xmlns="http://www.w3.org/2000/svg">
<path d="M794.161 0.0773926L955.754 0.0813904L938.665 32.2444L833.935 32.1854L833.876 55.9814C865.969 55.2614 898.074 55.1584 930.171 55.6724L930.203 86.4254L868.772 86.4224L833.92 86.3944L833.946 112.832L956.941 112.68C951.151 123.614 944.143 135.135 937.873 145.888C889.97 145.281 842.061 145.304 794.159 145.955L794.161 0.0773926Z" fill="url(#paint0_linear_6_235)"/>
<path d="M250.635 0.170334L290.801 0.121338C291.067 18.5723 291.21 37.0253 291.229 55.4783L378.154 55.3793C377.9 36.9693 377.798 18.5563 377.85 0.144333L418.065 0.138336C417.22 47.6693 419.4 95.8803 417.771 143.422C417.718 144.98 416.777 145.268 415.647 145.926L377.728 146.002L378.217 87.2793L290.851 87.3013L291.112 145.903L250.836 146.001C251.142 97.3913 251.075 48.7793 250.635 0.170334Z" fill="url(#paint1_linear_6_235)"/>
<path d="M507.057 0.175323L541.523 0.127319L622.551 146.051C608.412 145.956 594.273 145.944 580.135 146.013C564.344 113.79 546.9 82.0773 529.897 50.4593L524.357 39.1223C506.199 75.2333 486.777 110.156 468.354 146.061C454.413 145.897 440.303 146.006 426.345 146.012C453.663 98.7843 480.016 48.1613 507.057 0.175323Z" fill="url(#paint2_linear_6_235)"/>
<path d="M630.297 0.0974121L670.354 0.122406C669.959 37.2864 670.378 75.4114 670.547 112.633L782.303 112.516C778.649 119.451 774.33 126.814 770.469 133.699L763.133 145.808L630.474 145.802C631.394 97.2374 631.335 48.6594 630.297 0.0974121Z" fill="url(#paint3_linear_6_235)"/>
<path d="M196.582 0.162317L238.897 0.0973143C220.041 48.5603 201.689 97.2173 183.843 146.061L151.024 146.094C143.992 127.733 137.22 109.273 130.713 90.7203C126.926 79.8103 123.147 67.1193 119.18 56.5433C112.462 76.0233 105.459 95.4053 98.1739 114.68C94.8704 123.488 89.03 137.466 86.4084 146.087C75.3629 146.019 64.317 146.039 53.2717 146.146C41.3265 114.504 29.6901 82.7473 18.3642 50.8783C15.7531 43.6043 2.20133 4.8433 0 1.6563V0.805307C6.15664 -0.439693 34.2854 0.11431 42.5213 0.17431C52.6288 25.8783 63.4331 59.9663 71.6245 86.7373C81.8166 57.7993 92.2368 28.9423 102.884 0.168313L136.573 0.158304C147.319 28.0643 157.072 58.4193 166.569 86.9173C175.774 57.3363 187.464 28.9093 196.582 0.162317Z" fill="url(#paint4_linear_6_235)"/>
<path d="M164.447 190.355C194.147 189.836 228.367 190.206 258.077 192.357C274.477 193.545 283.517 212.57 283.107 227.905C282.377 255.491 284.937 285.344 282.177 312.956C279.217 341.628 250.777 341.633 228.287 342.072C200.437 343 165.697 342.006 137.697 340.143C121.937 339.094 111.627 323.084 111.967 307.959C111.287 290.498 111.767 272.858 111.647 255.432C111.287 205.808 109.157 192.057 164.447 190.355ZM152.697 308.114H243.047L242.887 224.087C212.807 224.342 182.727 224.358 152.647 224.134L152.697 308.114Z" fill="url(#paint5_linear_6_235)"/>
<path d="M515.247 191.149C523.897 190.101 544.297 190.711 553.467 190.629C570.047 190.925 586.687 190.568 603.217 191.943C623.367 193.618 628.847 207.46 633.797 224.184C595.937 224.853 556.587 223.555 518.267 224.061L518.277 247.774L569.827 247.6C586.217 247.533 609.897 245.89 623.877 255.631C636.327 264.862 634.217 281.755 634.717 294.942C635.847 324.418 628.567 337.71 598.377 341.608C581.447 341.55 564.507 341.603 547.567 341.769C530.867 341.939 509.567 343.875 494.397 336.116C484.007 330.799 480.747 318.482 477.757 308.09L596.597 308.162L596.537 281.27C579.177 281.178 561.817 281.236 544.457 281.445C529.217 281.556 504.257 283.586 491.437 274.384C484.467 269.38 480.177 257.634 479.587 249.155C477.397 217.821 478.697 194.702 515.247 191.149Z" fill="url(#paint6_linear_6_235)"/>
<path d="M409.417 190.373C409.757 190.363 410.107 190.357 410.447 190.355C439.897 190.249 466.667 193.49 464.977 229.565C464.487 244.933 467.807 267.13 455.707 279.005C442.447 292.023 411.997 289.117 394.457 289.01L360.407 289.069L360.307 256.856C380.977 257.327 404.067 256.596 424.927 256.334C424.767 245.583 424.817 234.677 424.767 223.911C408.747 223.367 390.037 223.824 373.807 223.812L347.037 223.876C348.247 261.942 347.437 303.587 347.317 341.753L306.037 341.771C306.387 291.45 306.337 241.126 305.877 190.805C339.427 190.809 376.177 191.625 409.417 190.373Z" fill="url(#paint7_linear_6_235)"/>
<path d="M689.747 190.776L736.387 190.743L736.507 292.172C736.527 303.976 737.317 330.168 736.047 340.672C733.947 342.077 732.047 341.66 729.217 341.761L689.717 341.841L689.687 293.941L698.317 286.316L698.257 242.586L689.877 236.466L689.747 190.776Z" fill="url(#paint8_linear_6_235)"/>
<path d="M798.907 190.695L845.307 190.678C845.537 205.428 845.267 220.811 845.197 235.611L836.667 242.525L836.607 285.456C838.827 287.792 842.637 290.984 845.157 293.2L845.267 334.66C845.347 336.611 845.177 338.133 844.987 340.066C841.907 343.002 805.697 341.761 799.107 341.737L798.907 190.695Z" fill="url(#paint9_linear_6_235)"/>
<path d="M749.167 190.739L787.277 190.732C786.167 240.361 787.077 291.944 787.347 341.741L749.207 341.785L749.167 190.739Z" fill="url(#paint10_linear_6_235)"/>
<defs>
<linearGradient id="paint0_linear_6_235" x1="874.241" y1="143.822" x2="875.182" y2="1.33831" gradientUnits="userSpaceOnUse">
<stop stop-color="#CDCCCC"/>
<stop offset="1" stop-color="#F6F6F6"/>
</linearGradient>
<linearGradient id="paint1_linear_6_235" x1="333.756" y1="143.355" x2="333.668" y2="1.79556" gradientUnits="userSpaceOnUse">
<stop stop-color="#CDCCCC"/>
<stop offset="1" stop-color="#F6F6F5"/>
</linearGradient>
<linearGradient id="paint2_linear_6_235" x1="523.85" y1="144.172" x2="523.863" y2="1.84424" gradientUnits="userSpaceOnUse">
<stop stop-color="#CDCCCC"/>
<stop offset="1" stop-color="#F5F5F5"/>
</linearGradient>
<linearGradient id="paint3_linear_6_235" x1="705.367" y1="143.312" x2="705.348" y2="1.83605" gradientUnits="userSpaceOnUse">
<stop stop-color="#CDCCCC"/>
<stop offset="1" stop-color="#F6F6F5"/>
</linearGradient>
<linearGradient id="paint4_linear_6_235" x1="118.807" y1="144.252" x2="119" y2="0.830187" gradientUnits="userSpaceOnUse">
<stop stop-color="#CDCCCC"/>
<stop offset="1" stop-color="#F6F6F6"/>
</linearGradient>
<linearGradient id="paint5_linear_6_235" x1="197.071" y1="340.071" x2="196.993" y2="191.666" gradientUnits="userSpaceOnUse">
<stop stop-color="#CDCCCC"/>
<stop offset="1" stop-color="#F6F6F6"/>
</linearGradient>
<linearGradient id="paint6_linear_6_235" x1="556.043" y1="340.124" x2="556.34" y2="191.667" gradientUnits="userSpaceOnUse">
<stop stop-color="#CDCCCC"/>
<stop offset="1" stop-color="#F6F6F6"/>
</linearGradient>
<linearGradient id="paint7_linear_6_235" x1="385.131" y1="339.096" x2="384.8" y2="191.516" gradientUnits="userSpaceOnUse">
<stop stop-color="#CDCCCC"/>
<stop offset="1" stop-color="#F6F6F5"/>
</linearGradient>
<linearGradient id="paint8_linear_6_235" x1="713.228" y1="190.743" x2="713.228" y2="341.841" gradientUnits="userSpaceOnUse">
<stop stop-color="#FD7F2A"/>
<stop offset="1" stop-color="#FD6600"/>
</linearGradient>
<linearGradient id="paint9_linear_6_235" x1="822.153" y1="190.678" x2="822.153" y2="342.018" gradientUnits="userSpaceOnUse">
<stop stop-color="#FD7F2A"/>
<stop offset="1" stop-color="#FD6600"/>
</linearGradient>
<linearGradient id="paint10_linear_6_235" x1="768.257" y1="190.732" x2="768.257" y2="341.785" gradientUnits="userSpaceOnUse">
<stop stop-color="#FD7F2A"/>
<stop offset="1" stop-color="#FD6600"/>
</linearGradient>
</defs>
</svg>
