<?xml version="1.0" encoding="utf-8" ?><svg xmlns="http://www.w3.org/2000/svg" xmlns:xlink="http://www.w3.org/1999/xlink" width="1766" height="615" viewBox="0 0 1766 615"><defs><linearGradient id="gradient_0" gradientUnits="userSpaceOnUse" x1="1094.7341" y1="381.27078" x2="1094.6556" y2="232.8662"><stop offset="0" stop-color="#CDCCCC"/><stop offset="1" stop-color="#F6F6F6"/></linearGradient></defs><path fill="url(#gradient_0)" d="M1062.11 231.555C1091.81 231.036 1126.03 231.406 1155.74 233.557C1172.14 234.745 1181.18 253.77 1180.77 269.105C1180.04 296.691 1182.6 326.544 1179.84 354.156C1176.88 382.828 1148.44 382.833 1125.95 383.272C1098.1 384.2 1063.36 383.206 1035.36 381.343C1019.6 380.294 1009.29 364.284 1009.63 349.159C1008.95 331.698 1009.43 314.058 1009.31 296.632C1008.95 247.008 1006.82 233.257 1062.11 231.555ZM1050.36 349.314L1140.71 349.314L1140.55 265.287C1110.47 265.542 1080.39 265.558 1050.31 265.334L1050.36 349.314Z"/><defs><linearGradient id="gradient_1" gradientUnits="userSpaceOnUse" x1="874.24072" y1="378.31567" x2="875.1817" y2="235.83191"><stop offset="0" stop-color="#CDCCCC"/><stop offset="1" stop-color="#F6F6F6"/></linearGradient></defs><path fill="url(#gradient_1)" d="M794.161 234.571L955.754 234.575L938.665 266.738L833.935 266.679L833.876 290.475C865.969 289.755 898.074 289.652 930.171 290.166L930.203 320.919L868.772 320.916L833.92 320.888L833.946 347.326L956.941 347.174C951.151 358.108 944.143 369.629 937.873 380.382C889.97 379.775 842.061 379.798 794.159 380.449L794.161 234.571Z"/><defs><linearGradient id="gradient_2" gradientUnits="userSpaceOnUse" x1="1453.7056" y1="381.32407" x2="1454.0031" y2="232.86703"><stop offset="0" stop-color="#CDCCCC"/><stop offset="1" stop-color="#F6F6F6"/></linearGradient></defs><path fill="url(#gradient_2)" d="M1412.91 232.349C1421.56 231.301 1441.96 231.911 1451.13 231.829C1467.71 232.125 1484.35 231.768 1500.88 233.143C1521.03 234.818 1526.51 248.66 1531.46 265.384C1493.6 266.053 1454.25 264.755 1415.93 265.261L1415.94 288.974L1467.49 288.8C1483.88 288.733 1507.56 287.09 1521.54 296.831C1533.99 306.062 1531.88 322.955 1532.38 336.142C1533.51 365.618 1526.23 378.91 1496.04 382.808C1479.11 382.75 1462.17 382.803 1445.23 382.969C1428.53 383.139 1407.23 385.075 1392.06 377.316C1381.67 371.999 1378.41 359.682 1375.42 349.29L1494.26 349.362L1494.2 322.47C1476.84 322.378 1459.48 322.436 1442.12 322.645C1426.88 322.756 1401.92 324.786 1389.1 315.584C1382.13 310.58 1377.84 298.834 1377.25 290.355C1375.06 259.021 1376.36 235.902 1412.91 232.349Z"/><defs><linearGradient id="gradient_3" gradientUnits="userSpaceOnUse" x1="333.75574" y1="377.84821" x2="333.66809" y2="236.28923"><stop offset="0" stop-color="#CDCCCC"/><stop offset="1" stop-color="#F6F6F5"/></linearGradient></defs><path fill="url(#gradient_3)" d="M250.635 234.664L290.801 234.615C291.067 253.066 291.21 271.519 291.229 289.972L378.154 289.873C377.9 271.463 377.798 253.05 377.85 234.638L418.065 234.632C417.22 282.163 419.4 330.374 417.771 377.916C417.718 379.474 416.777 379.762 415.647 380.42L377.728 380.496L378.217 321.773L290.851 321.795L291.112 380.397L250.836 380.495C251.142 331.885 251.075 283.273 250.635 234.664Z"/><defs><linearGradient id="gradient_4" gradientUnits="userSpaceOnUse" x1="1282.7943" y1="380.29529" x2="1282.4628" y2="232.7162"><stop offset="0" stop-color="#CDCCCC"/><stop offset="1" stop-color="#F6F6F5"/></linearGradient></defs><path fill="url(#gradient_4)" d="M1307.08 231.573C1307.42 231.563 1307.77 231.557 1308.11 231.555C1337.56 231.449 1364.33 234.69 1362.64 270.765C1362.15 286.133 1365.47 308.33 1353.37 320.205C1340.11 333.223 1309.66 330.317 1292.12 330.21L1258.07 330.269L1257.97 298.056C1278.64 298.527 1301.73 297.796 1322.59 297.534C1322.43 286.783 1322.48 275.877 1322.43 265.111C1306.41 264.567 1287.7 265.024 1271.47 265.012L1244.7 265.076C1245.91 303.142 1245.1 344.787 1244.98 382.953L1203.7 382.971C1204.05 332.65 1204 282.326 1203.54 232.005C1237.09 232.009 1273.84 232.825 1307.08 231.573Z"/><defs><linearGradient id="gradient_5" gradientUnits="userSpaceOnUse" x1="523.84998" y1="378.66617" x2="523.86322" y2="236.33792"><stop offset="0" stop-color="#CDCCCC"/><stop offset="1" stop-color="#F5F5F5"/></linearGradient></defs><path fill="url(#gradient_5)" d="M507.057 234.669L541.523 234.621L622.551 380.545C608.412 380.45 594.273 380.438 580.135 380.507C564.344 348.284 546.9 316.571 529.897 284.953L524.357 273.616C506.199 309.727 486.777 344.65 468.354 380.555C454.413 380.391 440.303 380.5 426.345 380.506C453.663 333.278 480.016 282.655 507.057 234.669Z"/><defs><linearGradient id="gradient_6" gradientUnits="userSpaceOnUse" x1="705.36725" y1="377.80551" x2="705.34839" y2="236.32964"><stop offset="0" stop-color="#CDCCCC"/><stop offset="1" stop-color="#F6F6F5"/></linearGradient></defs><path fill="url(#gradient_6)" d="M630.297 234.591L670.354 234.616C669.959 271.78 670.378 309.905 670.547 347.127L782.303 347.01C778.649 353.945 774.33 361.308 770.469 368.193L763.133 380.302L630.474 380.296C631.394 331.731 631.335 283.153 630.297 234.591Z"/><path fill="#FD7F2A" d="M1587.41 231.976L1634.05 231.943L1634.17 333.372C1634.19 345.176 1634.98 371.368 1633.71 381.872C1631.61 383.277 1629.71 382.86 1626.88 382.961L1587.38 383.041L1587.35 335.141L1595.98 327.516L1595.92 283.786L1587.54 277.666L1587.41 231.976Z"/><path fill="#FD7F2A" d="M1696.57 231.895L1742.97 231.878C1743.2 246.628 1742.93 262.011 1742.86 276.811L1734.33 283.725L1734.27 326.656C1736.49 328.992 1740.3 332.184 1742.82 334.4L1742.93 375.86C1743.01 377.811 1742.84 379.333 1742.65 381.266C1739.57 384.202 1703.36 382.961 1696.77 382.937L1696.57 231.895Z"/><path fill="#FD7F2A" d="M1646.83 231.939L1684.94 231.932C1683.83 281.561 1684.74 333.144 1685.01 382.941L1646.87 382.985L1646.83 231.939Z"/><defs><linearGradient id="gradient_7" gradientUnits="userSpaceOnUse" x1="118.80733" y1="378.74609" x2="118.99999" y2="235.32387"><stop offset="0" stop-color="#CDCCCC"/><stop offset="1" stop-color="#F6F6F6"/></linearGradient></defs><path fill="url(#gradient_7)" d="M196.582 234.656L238.897 234.591C220.041 283.054 201.689 331.711 183.843 380.555L151.024 380.588C143.992 362.227 137.22 343.767 130.713 325.214C126.926 314.304 123.147 301.613 119.18 291.037C112.462 310.517 105.459 329.899 98.1739 349.174C94.8704 357.982 89.03 371.96 86.4084 380.581C75.3629 380.513 64.317 380.533 53.2717 380.64C41.3265 348.998 29.6901 317.241 18.3642 285.372C15.7531 278.098 2.20133 239.337 0 236.15L0 235.299C6.15664 234.054 34.2854 234.608 42.5213 234.668C52.6288 260.372 63.4331 294.46 71.6245 321.231C81.8166 292.293 92.2368 263.436 102.884 234.662L136.573 234.652C147.319 262.558 157.072 292.913 166.569 321.411C175.774 291.83 187.464 263.403 196.582 234.656Z"/></svg>